<?xml version="1.0" encoding="UTF-8"?>
<svg id="b" data-name="Layer 2" xmlns="http://www.w3.org/2000/svg" viewBox="0 0 329.29 406.9">
  <g id="c" data-name="Layer 1">
    <g>
      <path d="M17.54,204.57c0-45.18,14.29-81.66,42.88-109.42,28.58-27.76,62.92-41.65,102.99-41.65s74.8,13.88,103.39,41.65c28.58,27.76,42.88,64.24,42.88,109.42s-14.29,81.25-42.88,109.02c-28.59,27.76-63.06,41.65-103.39,41.65s-74.41-13.88-102.99-41.65c-28.59-27.76-42.88-64.1-42.88-109.02ZM104.1,132.91c-16.84,16.74-25.26,40.49-25.26,71.25s8.42,54.51,25.26,71.25c16.84,16.74,36.61,25.11,59.33,25.11s42.87-8.37,59.71-25.11c16.84-16.74,25.26-40.49,25.26-71.25s-8.42-54.51-25.26-71.25c-16.84-16.74-36.75-25.11-59.71-25.11s-42.49,8.37-59.33,25.11Z" style="fill: #fff;"/>
      <polygon points="0 406.9 50.86 406.9 329.29 0 278.44 0 0 406.9" style="fill: #294bf2;"/>
    </g>
  </g>
</svg>