<?xml version="1.0" encoding="UTF-8"?>
<svg id="b" data-name="Layer 2" xmlns="http://www.w3.org/2000/svg" viewBox="0 0 955.09 406.9">
  <g id="c" data-name="Layer 1">
    <g>
      <path d="M394.6,226.37v118.07h-54.34V67.79h54.34v102.55c7.68-16.2,29.99-34.99,54.23-34.99s43.43,8.97,56.09,23.81c12.66,14.85,16.86,35.21,16.86,58.63v126.65h-52.42v-117.25c0-11.98-3.06-25.9-9.19-33.25-6.13-7.35-15.46-11.03-27.98-11.03-11.17,0-20.09,3.61-26.76,10.83-6.68,7.22-10.28,20.93-10.83,32.64Z" style="fill: #fff;"/>
      <path d="M552.34,83.63c0-8.53,2.92-15.72,8.77-21.57,5.85-5.85,12.91-8.77,21.2-8.77s15.65,2.92,21.38,8.77c5.72,5.85,8.59,13.04,8.59,21.57,0,8.04-2.87,14.99-8.59,20.84-5.73,5.85-12.86,8.77-21.38,8.77s-15.35-2.92-21.2-8.77-8.77-12.79-8.77-20.84ZM608.74,344.44h-54.34v-204.9h54.34v204.9Z" style="fill: #fff;"/>
      <path d="M761.03,136.54v51.73c-4.63-1.08-11.93-4.24-18.19-4.24-15.52,0-25,2.26-35.74,15.89-10.58,13.42-8.95,32.45-8.95,52.6v91.92h-54.34v-204.9h52.7v33.72c9.8-20.97,17.92-37.54,51.85-37.54,2.45,0,6.67.27,12.67.82Z" style="fill: #fff;"/>
      <path d="M902.77,281.29l50.34,5.07c-4.96,18.66-15.21,34.03-30.74,46.1-15.53,12.07-34.53,18.11-56.98,18.11-27.67,0-51.17-9.81-70.48-29.43-19.32-19.61-28.98-45.89-28.98-78.82s7.83-57.56,26.62-77.46c18.8-19.89,42.55-29.14,68.14-29.14,29.76,0,53.06,9.26,69.9,27.78,10.52,11.58,18.88,30.45,22.6,53.18,2.23,13.63,1.88,37.3,1.88,37.4h-137.84c.52,13.17,4.32,28.78,13.72,37.55,9.4,8.78,19.13,14.19,32.18,14.19,15.47,0,32.59-3.95,39.64-24.53ZM819.74,219.46h83.47c-.76-12.08-4.55-22.25-11.38-30.5-6.83-8.25-16.95-12.38-30.35-12.38-12.14,0-21.95,4.42-29.41,13.26-7.46,8.84-11.57,18.72-12.33,29.61Z" style="fill: #fff;"/>
      <path d="M17.54,204.57c0-45.18,14.29-81.66,42.88-109.42,28.58-27.76,62.92-41.65,102.99-41.65s74.8,13.88,103.39,41.65c28.58,27.76,42.88,64.24,42.88,109.42s-14.29,81.25-42.88,109.02c-28.59,27.76-63.06,41.65-103.39,41.65s-74.41-13.88-102.99-41.65c-28.59-27.76-42.88-64.1-42.88-109.02ZM104.1,132.91c-16.84,16.74-25.26,40.49-25.26,71.25s8.42,54.51,25.26,71.25c16.84,16.74,36.61,25.11,59.33,25.11s42.87-8.37,59.71-25.11c16.84-16.74,25.26-40.49,25.26-71.25s-8.42-54.51-25.26-71.25c-16.84-16.74-36.75-25.11-59.71-25.11s-42.49,8.37-59.33,25.11Z" style="fill: #fff;"/>
      <polygon points="0 406.9 50.86 406.9 329.29 0 278.44 0 0 406.9" style="fill: #294bf2;"/>
    </g>
  </g>
</svg>