<svg width="1024" height="1024" viewBox="0 0 1024 1024" fill="none" xmlns="http://www.w3.org/2000/svg">
<path d="M352.998 204.708C349.05 190.696 352.893 191.571 365.337 190.927C369.838 190.692 374.321 190.194 378.764 189.437C387.587 188.008 396.261 185.769 404.673 182.749C425.681 175.157 444.592 164.371 467.195 161.351C497.627 157.465 530.789 162.328 560.154 171.253C584.974 178.796 612.569 191.589 635.089 204.562C641.334 208.158 648.239 213.946 653.939 218.366C660.529 214.166 662.524 213.385 669.874 214.667C677.064 219.811 675.068 224.149 672.488 231.44C681.598 233.554 692.718 238.418 681.553 247.807C684.608 253.662 688.664 259.67 691.999 265.474C698.084 276.008 703.058 287.143 706.853 298.7C716.223 327.483 720.514 356.802 715.069 386.877C715.344 391.722 707.344 406.865 708.029 410.317C711.854 429.573 715.299 448.036 706.199 466.952C700.274 479.279 690.679 484.741 677.134 489.003C679.974 494.356 682.354 500.236 679.779 506.196C677.099 512.401 671.269 511.046 666.564 508.456C661.574 513.966 660.484 514.061 653.694 511.811C649.824 516.296 645.283 521.746 640.923 525.606C637.668 528.486 633.629 531.326 630.139 534.206C627.914 552.211 628.649 570.181 629.079 588.221C646.524 591.111 652.069 601.541 663.259 613.961C668.959 620.291 678.489 628.796 682.019 636.306C684.584 637.546 685.038 638.181 686.423 640.726C692.958 641.636 700.139 645.116 706.339 647.756C748.299 665.611 791.409 681.546 831.759 702.896C835.809 705.036 838.999 708.216 841.559 711.891C838.679 723.041 830.579 730.316 822.454 738.786C794.219 768.206 755.528 792.611 719.968 811.911C712.163 816.141 654.748 840.866 649.533 839.676C648.303 838.341 648.769 839.111 648.309 837.161L647.254 836.821C645.504 835.036 644.689 832.921 644.384 830.501C641.249 832.221 637.089 842.991 633.649 844.296C610.369 853.161 584.189 857.896 559.379 859.841C553.689 860.286 540.428 861.771 536.098 859.231C533.913 862.241 519.719 861.491 517.014 860.126C516.439 860.616 515.763 861.086 515.093 861.441C506.373 866.061 440.732 859.446 429.654 855.951C427.383 855.231 426.591 853.626 425.51 851.646L424.76 852.426C421.044 852.801 413.353 852.681 410.195 850.621C410.105 850.591 410.015 850.566 409.925 850.536C402.214 850.071 394.556 848.966 387.03 847.226C373.272 844.116 359.195 838.151 345.872 833.746C335.288 829.966 337.984 830.056 336.568 821.696C334.448 809.181 337.28 790.451 334.802 779.076C333.551 776.676 332.966 775.261 332 772.781C330.703 772.896 330.552 773.066 329.34 773.611C325.903 777.791 327.751 816.736 327.324 824.826C315.036 823.736 302.102 815.576 291.458 809.671C278.517 802.491 219.612 766.201 216.451 753.201C214.714 746.061 225.182 722.136 229.303 715.566C232.624 710.266 238.699 707.306 244.149 704.606C260.513 696.496 278.633 690.996 295.665 684.321C314.927 676.581 334.324 669.186 353.848 662.136C362.704 658.846 374.583 653.836 383.378 651.706C385.835 650.081 388.002 648.276 390.525 650.426C391.96 649.371 397.816 642.851 399.513 641.121C404.604 635.926 408.281 633.556 414.249 629.686C399.386 621.466 388.542 617.451 376.195 604.061C365.508 592.526 357.298 578.921 352.071 564.091C342.551 536.371 343.253 520.091 341.362 491.944C337.603 435.996 341.238 381.977 343.443 326.103C321.004 315.982 335.129 283.255 345.229 268.97C339.227 262.801 334.262 257.388 331.675 248.972C327.187 234.369 330.291 223.902 345.703 219.236C338.562 209.89 339.665 202.257 352.998 204.708Z" fill="black"/>
<path d="M686.422 640.727C692.957 641.637 700.137 645.117 706.337 647.757C748.297 665.612 791.407 681.547 831.757 702.897C835.807 705.037 838.997 708.217 841.557 711.892C838.677 723.042 830.577 730.317 822.452 738.787C794.217 768.207 755.527 792.612 719.967 811.912C712.162 816.142 654.747 840.867 649.532 839.677C648.302 838.342 648.767 839.112 648.307 837.162C651.197 833.612 678.312 796.182 677.292 793.037C675.602 787.862 645.837 775.717 643.797 770.497C644.587 768.902 681.532 750.157 686.862 747.092C688.682 739.482 688.047 720.962 687.992 712.552C687.832 688.602 687.307 664.657 686.422 640.727Z" fill="black"/>
<path d="M450.341 727.297L450.628 728.062C452.623 733.467 456.647 752.532 460.878 753.567C472.423 756.397 490.974 757.452 503.114 759.142C510.409 754.147 517.019 740.197 522.689 732.482C526.884 736.427 551.414 760.317 555.789 760.492C561.999 760.747 578.524 748.592 584.389 744.842L553.399 817.142C549.824 825.392 546.309 833.667 542.854 841.967C540.559 847.432 537.734 853.597 536.099 859.232C533.914 862.242 519.719 861.492 517.014 860.127C516.439 860.617 515.764 861.087 515.094 861.442C506.374 866.062 440.732 859.447 429.654 855.952C427.383 855.232 426.592 853.627 425.511 851.647L424.761 852.427C421.044 852.802 413.353 852.682 410.195 850.622C411.334 841.852 410.871 825.877 411.021 816.537L412.064 747.727C416.25 750.462 418.647 751.217 423.74 751.147C430.015 747.182 444.403 733.142 450.341 727.297Z" fill="white"/>
<path d="M459.39 759.812C471.103 759.337 489.528 762.142 501.904 762.792C504.799 785.042 508.054 807.247 511.664 829.392C512.999 837.612 516.459 852.637 517.019 860.122C516.444 860.612 515.769 861.082 515.099 861.437C506.379 866.057 440.737 859.442 429.659 855.947C427.388 855.227 426.597 853.622 425.516 851.642C428.632 844.522 431.911 834.467 434.465 826.867C441.883 804.792 452.759 781.922 459.39 759.812Z" fill="black"/>
<path d="M327.324 824.823C315.036 823.733 302.102 815.573 291.458 809.668C278.517 802.488 219.612 766.198 216.451 753.198C214.714 746.058 225.182 722.133 229.303 715.563C232.624 710.263 238.699 707.303 244.149 704.603C260.513 696.493 278.633 690.993 295.665 684.318C314.927 676.578 334.324 669.183 353.848 662.133C362.704 658.843 374.583 653.833 383.378 651.703C383.257 651.878 383.137 652.053 383.014 652.223C377.648 659.718 370.675 666.598 364.638 673.598C354.842 684.953 345.416 696.558 335.789 708.043C333.157 711.183 329.582 713.568 327.123 716.788C326.408 717.723 325.492 719.028 325.736 720.258C327.227 727.773 362.697 749.483 358.961 755.498C355.925 760.383 335.04 768.368 331.807 772.368L332 772.778C330.703 772.893 330.552 773.063 329.34 773.608C325.903 777.788 327.751 816.733 327.324 824.823Z" fill="black"/>
<path d="M682.024 636.305C684.589 637.545 685.044 638.18 686.429 640.725C687.314 664.655 687.839 688.6 687.999 712.55C688.054 720.96 688.689 739.48 686.869 747.09C681.539 750.155 644.594 768.9 643.804 770.495C645.844 775.715 675.609 787.86 677.299 793.035C678.319 796.18 651.204 833.61 648.314 837.16L647.259 836.82C645.509 835.035 644.694 832.92 644.389 830.5C648.164 824.26 652.064 818.1 656.089 812.025C657.794 809.405 666.514 797.455 664.534 794.44C660.859 788.84 624.579 772.79 623.344 769.22C626.934 765.88 641.134 761.625 646.394 758.895C656.824 753.485 669.729 748.575 679.194 741.535C681.349 730.545 680.224 705.015 680.479 692.77C680.874 674.16 681.909 654.795 682.024 636.305Z" fill="white"/>
<path d="M383.377 651.703C385.835 650.078 388.001 648.273 390.524 650.423C387.644 655.553 375.634 669.233 371.09 674.738C358.635 689.838 347.378 704.838 335.478 720.238C339.558 724.208 343.735 728.073 348.004 731.838C353.852 736.938 370.942 750.008 373.657 755.853C372.642 760.708 357.219 766.218 352.674 768.928C347.054 772.283 339.927 775.012 334.802 779.072C333.551 776.672 332.965 775.258 331.999 772.778L331.806 772.367C335.039 768.367 355.925 760.382 358.961 755.497C362.697 749.482 327.226 727.772 325.735 720.257C325.492 719.027 326.407 717.723 327.123 716.788C329.581 713.568 333.157 711.183 335.789 708.043C345.415 696.558 354.841 684.953 364.637 673.598C370.674 666.598 377.648 659.718 383.014 652.223C383.137 652.053 383.256 651.878 383.377 651.703Z" fill="white"/>
<path d="M371.604 282.133C392.476 291.56 416.809 289.889 439.005 287.631C451.645 295.201 464.923 300.633 479.9 304.975C486.544 306.901 535.576 323.193 534.061 305.452C533.896 303.505 526.321 293.297 524.456 289.968L524.041 289.224C530.586 290.33 536.661 292.652 543.086 294.349C552.571 296.854 562.371 298.743 571.876 301.026C584.056 303.95 598.536 303.812 610.011 307.778C612.376 312.902 614.676 321.776 616.471 327.312C626.081 356.966 629.061 384.273 631.671 415.075C628.376 415.62 625.551 416.06 623.306 418.787C617.771 425.508 616.041 435.137 612.816 442.781C604.311 463.227 596.161 478.644 579.391 493.69C562.226 509.09 554.611 508.01 533.621 501.325C518.466 496.105 511.111 490.855 498.368 481.45C481.39 468.922 465.663 464.417 444.579 466.358C447.372 465.03 451.259 463.007 452.96 460.398C455.196 456.969 455.144 451.1 451.554 448.654C442.806 447.501 431.513 465.756 418.898 458.527C402.643 449.213 415.607 437.134 422.736 427.348C423.636 426.112 423.679 424.314 423.219 422.88C418.768 417.83 412.389 421.874 408.079 425.261C403.424 428.918 399.954 436.229 399.497 442.136C398.734 451.986 401.352 457.536 407.728 464.788C400.372 467.148 394.952 471.134 388.755 475.389C382.237 479.866 363.614 497.3 356.965 497.95C356.804 497.81 356.63 497.685 356.482 497.535C346.683 487.425 353.763 370.422 353.981 348.63C354.061 340.623 353.311 298.227 357.361 293.228C359.53 290.55 363.805 288.784 366.611 286.713C368.405 285.388 370.012 283.692 371.604 282.133Z" fill="white"/>
<path d="M484.727 341.949C488.502 341.684 492.294 341.765 496.055 342.192C509.977 343.878 526.632 351.693 535.557 362.863C537.167 364.881 539.092 368.029 536.402 369.839C534.237 369.997 532.827 368.984 530.822 367.981C524.257 364.504 512.682 359.649 505.232 358.476C496.075 357.14 485.293 358.87 476.676 355.283C472.288 353.456 472.126 349.602 474.87 346.229C477.964 342.425 480.224 342.47 484.727 341.949Z" fill="black"/>
<path d="M392.853 342.44C396.924 341.765 407.131 341.645 408.817 345.913C413.887 358.747 394.846 356.16 388.219 357.883C381.726 359.571 377.15 360.897 371.538 363.275C368.283 364.7 361.164 368.23 358.612 364.922C358.561 362.683 359.431 361.187 360.82 359.434C368.697 349.498 380.632 344.145 392.853 342.44Z" fill="black"/>
<path d="M500.795 382.312C502.74 382.243 504.67 382.687 506.385 383.6C509.365 385.199 512.1 389.311 512.67 392.557C514.09 400.574 515.86 411.085 505.94 413.585C492.066 413.959 491.024 396.337 494.77 386.568C495.784 383.924 498.231 383.025 500.795 382.312Z" fill="black"/>
<path d="M383.046 381.334C395.883 380.373 398.064 395.092 395.744 404.744C394.871 408.381 393.044 409.896 389.914 411.653C375.627 413.097 374.837 396.801 377.263 386.544C377.93 383.725 380.568 382.347 383.046 381.334Z" fill="black"/>
<path d="M621.839 567.656C622.499 572.771 621.784 583.996 622.144 589.336C623.209 605.071 607.544 622.521 596.179 632.956C571.969 655.186 536.964 675.616 505.664 686.406C501.289 687.911 492.287 691.166 488.04 691.026C480.115 690.766 470.334 680.086 465.328 674.461C457.962 666.356 448.876 651.866 447.117 640.976C488.324 643.861 525.759 633.346 561.814 613.526C571.954 607.956 580.684 601.301 591.289 595.901C602.559 590.166 614.399 577.751 621.839 567.656Z" fill="white"/>
<path d="M629.488 597.023C633.528 600.413 635.653 603.438 637.613 608.283C636.553 618.638 632.823 627.193 628.773 636.678C617.363 663.368 606.293 690.063 596.033 717.218C589.268 735.138 572.303 744.753 556.628 754.403C549.028 747.853 540.293 738.233 532.828 730.933C525.178 723.753 517.883 716.203 510.268 708.993C507.013 705.913 503.783 702.818 500.898 699.388C514.728 694.418 520.293 695.018 535.193 687.658C575.263 667.858 614.383 641.248 629.488 597.023Z" fill="white"/>
<path d="M675.154 398.936C678.794 398.637 683.619 399.831 686.709 401.788C693.354 406.095 695.849 414.661 697.249 422.011C701.169 442.593 697.474 474.345 670.744 475.996C666.364 476.267 660.089 474.576 657.359 478.73C656.749 480.968 657.224 482.115 657.724 484.426C653.614 491.93 650.339 496.991 645.429 503.846C641.399 509.161 638.544 512.741 633.734 517.346C638.529 483.203 642.579 455.511 641.199 420.493C653.769 418.227 651.074 402.335 675.154 398.936Z" fill="white"/>
<path d="M679.706 420.37C681.831 420.222 683.201 420.42 684.906 421.698C686.636 426.218 680.366 429.821 677.176 431.888C679.996 434.306 682.991 437.456 682.071 441.498C678.626 445.302 674.511 442.125 671.151 439.996C667.896 442.501 663.156 447.056 659.991 449.941C659.596 450.273 659.196 450.602 658.796 450.927C656.261 452.986 655.546 453.765 652.271 453.433C647.611 450.537 649.846 442.652 652.521 439.091C659.181 430.22 668.586 422.495 679.706 420.37Z" fill="black"/>
<path d="M425.084 634.562L434.312 638.263C438.555 663.418 450.412 684.793 473.608 696.513C470.08 699.923 464.505 703.873 460.652 707.263C454.498 712.673 448.624 718.078 442.746 723.788C436.049 730.868 429.533 738.118 422.285 744.613C413.478 734.083 414.039 712.522 414.384 699.242C414.878 680.297 414.075 650.283 425.084 634.562Z" fill="white"/>
<path d="M409.284 506.266C412.351 507.001 420.826 518.836 430.594 520.256C443.531 522.141 448.561 518.611 458.74 511.761C470.711 514.596 482.879 517.966 494.955 520.161C505.089 522.006 515.274 522.341 525.549 522.456C514.279 535.071 502.514 542.306 486.747 548.446C481.578 546.776 477.327 543.281 472.597 540.651C463.915 535.816 454.154 532.321 444.375 530.716C435.634 529.301 426.701 529.591 418.072 531.576C414.7 532.376 411.391 533.421 408.173 534.706C405.481 535.771 392.434 542.131 390.768 541.576C383.379 539.116 376.543 527.911 372.906 521.821C387.424 517.861 395.873 512.906 409.284 506.266Z" fill="white"/>
<path d="M328.478 823.758C329.567 827.303 330.92 824.858 334.14 827.773C331.756 827.393 329.677 827.463 328.219 825.813L328.478 823.758Z" fill="black"/>
</svg>
