<svg width="1024" height="1024" viewBox="0 0 1024 1024" fill="none" xmlns="http://www.w3.org/2000/svg">
<path d="M343.418 265.129C333.805 256.76 328.523 246.381 329.819 233.534C330.645 225.347 334.55 222.625 341.008 219.429C343.738 218.078 338.535 213.307 339.317 210.234C340.703 204.788 345.481 207.724 348.451 205.237C351.679 197.636 339.923 193.665 364.698 190.708C384.906 188.296 409.954 180.075 428.87 171.999C454.576 161.024 471.246 159.859 498.627 161.727C540.998 164.617 581.693 177.234 619.053 197.248C627.933 202.022 641.113 209.115 647.943 216.537C657.023 210.766 664.453 208.492 671.418 218.776L671.938 229.543L672.503 229.68C675.453 230.372 678.028 231.004 679.398 233.862C682.538 240.404 678.053 244.257 673.253 246.881C682.878 258.603 689.918 273.546 694.558 287.84C696.383 293.458 699.173 299.802 700.468 305.495C705.433 327.321 707.898 349.698 705.553 372.041C704.948 377.753 702.943 385.058 701.538 390.583C705.343 392.926 708.613 395.046 709.838 399.678C710.843 403.46 709.098 408.563 704.883 409.29C695.603 407.179 708.678 400.725 692.403 399.428C694.213 406.177 696.948 412.686 698.748 419.161C702.133 431.361 704.148 447.453 700.158 459.711C694.943 475.728 684.083 482.079 669.993 489.232C669.933 493.846 674.533 500.991 670.923 505.254C666.768 510.164 659.243 508.724 654.863 505.199C655.223 513.679 657.368 528.199 641.368 521.219C638.383 519.919 637.798 516.629 637.003 513.604C628.008 526.319 622.558 532.419 611.683 543.589C624.258 548.274 628.048 547.389 639.188 556.424C660.983 574.094 666.233 602.594 668.478 629.314C693.383 642.344 719.978 656.929 741.063 675.129C766.848 697.384 783.358 724.989 792.053 757.819C795.328 770.174 797.018 773.649 798.033 787.439C779.743 811.924 739.758 827.029 711.173 835.834C706.653 837.229 696.833 840.869 692.883 841.479L693.453 833.539C693.513 831.289 693.458 829.059 693.428 826.809C690.683 825.764 669.958 825.849 665.303 825.789L665.548 827.334C665.618 829.739 665.608 830.724 666.093 833.044L666.978 833.794L670.608 834.129C672.673 834.174 677.893 833.899 679.333 834.994C680.738 836.059 680.543 838.014 680.803 839.909C680.293 841.624 679.798 843.504 679.143 845.154C663.668 848.779 648.308 852.434 632.548 854.669C618.138 856.714 603.343 859.789 588.803 860.754C586.348 861.129 584.923 861.399 582.413 861.394C579.523 861.809 576.468 861.899 573.553 862.119C530.878 865.374 488.273 861.329 445.959 855.944C436.478 854.739 427.977 854.979 418.096 853.224C365.902 843.939 314.309 827.489 267.838 801.734C264.61 799.944 259.249 802.664 259.916 794.659C260.394 788.629 262.425 782.869 263.665 776.974C271.366 748.664 278.804 718.879 295.153 694.179C302.365 683.284 312.914 680.189 321.242 672.394C321.792 635.044 337.61 605.964 373.973 596.129C378.405 594.934 390.191 582.729 393.652 578.669L394.111 578.124C391.669 575.229 382.082 568.989 377.735 565.064C342.545 533.284 339.261 490.739 337.434 446.517C328.703 436.69 324.816 435.85 318.493 422.707C310.058 405.174 310.884 394.068 311.07 375.478C310.908 375.514 310.747 375.551 310.585 375.588L309.774 375.756C305.396 376.685 302.849 376.659 298.373 375.751C293.465 374.755 289.991 369.433 296.005 366.915C300.569 365.003 307.431 366.746 312.012 368.618C314.792 361.928 317.597 356.126 323.747 351.799C328.387 348.534 337.618 347.853 341.565 344.24C342.972 339.538 343.281 328.442 342.94 323.168C342.712 319.629 338.828 320.432 336.934 318.232C332.439 313.01 330.398 304.02 330.299 297.555C330.07 282.698 333.733 275.487 343.418 265.129Z" fill="black"/>
<path d="M593.177 833.396C598.897 832.771 606.637 833.016 612.567 832.976C630.767 832.856 648.732 833.821 666.972 833.791L670.602 834.126C672.667 834.171 677.887 833.896 679.327 834.991C680.732 836.056 680.537 838.011 680.797 839.906C680.287 841.621 679.792 843.501 679.137 845.151C663.662 848.776 648.302 852.431 632.542 854.666C618.132 856.711 603.337 859.786 588.797 860.751C589.897 852.131 591.032 841.776 593.177 833.396Z" fill="black"/>
<path d="M587.804 821.008C601.924 822.293 613.579 825.108 628.094 824.768C640.289 824.483 652.914 825.883 665.304 825.788L665.549 827.333C665.619 829.738 665.609 830.723 666.094 833.043L666.979 833.793C648.739 833.823 630.774 832.858 612.574 832.978C606.644 833.018 598.904 832.773 593.184 833.398C591.039 841.778 589.904 852.133 588.804 860.753C586.349 861.128 584.924 861.398 582.414 861.393C582.184 849.408 584.609 832.698 587.804 821.008Z" fill="white"/>
<path d="M603.103 376.084C607.973 375.888 613.403 375.64 618.198 376.329C619.813 383.605 621.218 390.927 622.408 398.284C623.248 403.686 623.888 411.449 625.473 416.352C629.693 429.406 640.113 409.16 643.828 405.147C646.493 402.247 649.653 399.849 653.163 398.067C684.423 382.191 687.708 425.234 687.003 445.689C686.468 461.132 674.358 469.622 660.803 474.643C654.018 477.156 647.783 472.655 643.558 482.432C631.513 510.301 610.848 531.686 587.063 549.906C583.083 552.951 576.683 559.521 579.598 564.891C581.058 566.066 582.493 565.856 584.443 565.946C584.233 575.576 582.308 588.556 581.763 599.191C559.633 600.556 540.563 608.371 525.958 625.116C508.473 645.161 506.408 664.566 507.813 689.791C486.524 691.711 463.87 690.421 446.018 677.121C440.241 672.816 437.25 667.711 433.568 661.686C432.597 644.866 433.888 634.951 430.078 617.771L434.244 615.541C436.235 619.876 440.393 634.276 443.067 635.571C444.763 635.711 447.826 633.891 447.874 632.401C448.119 624.816 448.717 601.671 444.862 596.031C466.229 596.691 492.47 596.446 508.763 579.046C510.418 577.276 507.983 573.081 505.938 572.501C501.273 571.176 493.624 575.161 489.122 576.856C476.969 580.516 470.526 581.366 458.04 581.341C386.397 581.211 349.422 523.261 350.589 457.238C373.176 461.231 387.203 456.336 400.976 438.218C400.618 448.656 401.963 459.708 412.88 464.877C421.853 468.169 428.028 467.412 437.237 464.765C445.334 462.438 461.566 449.645 446.128 444.153C442.362 442.813 437.575 450.277 434.616 451.946C428.775 454.945 417.778 458.279 414.156 450.844C407.208 436.58 417.81 433.319 423.982 423.73C424.468 422.974 423.51 421.477 423.028 420.736C419.08 418.604 413.521 421.48 410.409 424.065C416.232 405.636 415.626 398.191 411.749 380.08C421.433 378.903 429.832 379.183 439.248 381.738C439.436 384.878 439.538 388.833 439.984 391.868C445.048 426.358 473.958 472.5 513.628 469.218C530.058 467.859 544.473 462.459 555.443 450.088C573.288 429.96 570.418 404.212 568.718 379.44C574.773 379.453 580.833 379.35 586.888 379.132C588.088 378.318 589.268 377.223 590.378 376.266L603.103 376.084Z" fill="white"/>
<path d="M457.934 492.379C468.212 491.418 469.717 499.073 464.41 506.433C458.677 514.038 450.123 517.728 440.895 518.803C427.581 520.353 417.83 517.533 407.451 509.488C403.755 505.838 396.328 497.296 403.116 492.928C409.793 491.496 414.613 502.989 423.425 504.998C431.358 507.033 440.662 506.103 447.225 500.85C450.724 498.051 453.783 494.38 457.934 492.379Z" fill="black"/>
<path d="M669.044 418.87C678.089 418.059 678.229 425.01 672.044 429.403C674.959 442.508 670.269 446.372 658.194 439.887C655.494 443.032 653.844 444.981 650.769 447.692C641.489 452.427 637.869 442.764 641.994 436.313C647.219 428.135 660.024 421.423 669.044 418.87Z" fill="black"/>
<path d="M367.796 276.461C386.157 283.259 397.127 286.928 417.208 286.047C419.956 285.927 432.048 284.802 433.571 285.287C439.871 287.294 448.649 291.422 455.098 293.984C468.367 299.255 515.733 312.047 526.948 308.422C528.683 307.866 530.088 306.583 530.798 304.907C533.138 299.381 527.023 290.543 524.578 284.75C529.538 286.669 534.188 289.006 539.383 290.655C549.713 293.93 560.863 296.642 571.423 299.131C580.543 301.28 589.273 302.426 598.488 304.946C600.833 312.042 604.708 320.927 606.428 328.04C609.393 340.276 615.048 356.076 616.423 368.297C607.133 368.252 598.773 368.77 589.518 369.294L587.288 365.746C580.308 366.258 573.318 366.64 566.323 366.895C565.828 365.478 565.208 364.238 564.578 362.876C555.908 349.45 540.038 350.721 526.223 348.891C523.853 348.577 516.968 343.508 514.128 341.961C509.828 339.61 505.283 337.73 500.578 336.356C494.893 334.693 482.29 332.013 476.996 335.196C475.087 336.336 473.752 338.234 473.323 340.416C471.556 349.531 481.323 350.102 487.39 350.706C478.996 351.691 470.69 353.315 462.544 355.564C460.659 356.093 451.461 359.113 450.078 359.208C433.163 360.369 413.956 358.948 397.266 356.389C394.028 355.892 388.216 353.264 385.357 352.036C393.002 349.103 401.276 349.078 407.843 346.65C412.816 344.811 413.963 332.723 404.195 332.719C390.987 332.715 377.256 336.939 367.053 345.726C362.338 344.711 359.311 344.073 354.508 343.601C353.493 335.138 354.452 298.69 355.556 289.989C362.32 284.949 363.737 283.726 367.796 276.461Z" fill="white"/>
<path d="M500.642 358.527C507.657 357.959 519.947 357.232 526.012 360.345C530.297 362.547 533.122 364.64 538.067 365.678L538.762 365.157C538.842 362.807 537.847 361.772 536.997 359.482C539.367 358.235 546.072 360.89 548.267 362.284C559.647 369.517 558.472 380.12 559.932 391.522C564.222 425.085 555.007 452.514 518.957 459.262C505.597 459.539 493.316 459.022 482.173 449.812C465.156 435.273 451.537 411.506 449.189 389.149C446.432 362.895 482.271 360.116 500.642 358.527Z" fill="white"/>
<path d="M499.12 373.874C509.643 373.556 512.298 384.019 513.108 392.469C513.868 400.407 515.113 407.625 506.523 411.221C495.433 411.84 493.14 401.262 492.089 392.394C491.126 384.273 490.969 377.612 499.12 373.874Z" fill="black"/>
<path d="M593.562 627.424C629.462 624.454 640.837 674.334 623.432 698.764C616.322 708.744 608.457 715.379 596.187 717.784C588.472 718.199 581.517 717.854 575.067 713.494C549.302 696.084 552.242 655.144 574.517 636.184C580.302 631.259 586.582 628.969 593.562 627.424Z" fill="white"/>
<path d="M353.619 355.055C354.986 355.209 355.764 355.131 356.77 356.042C359.564 364.634 363.862 361.249 369.747 357.096C389.292 363.508 403.411 375.697 405.513 397.293C407.035 412.921 402.576 424.869 392.627 436.873C390.247 439.59 387.505 441.969 384.479 443.943C373.429 451.15 362.808 451.626 350.426 448.968C349.976 420.956 351.428 393.36 353.202 365.432C353.42 361.996 353.515 358.499 353.619 355.055Z" fill="white"/>
<path d="M384.83 377.391C395.408 378.968 397.211 398.872 392.014 406.093C390.331 408.431 388.351 408.764 385.693 409.091C380.994 406.397 377.951 402.99 376.644 397.68C374.505 388.997 374.705 379.9 384.83 377.391Z" fill="black"/>
<path d="M572.148 614.492C581.398 613.322 586.848 614.762 594.768 619.042C586.403 620.047 578.317 622.282 571.412 627.287C546.297 645.477 537.283 680.312 556.468 706.202C566.943 720.342 574.338 723.257 591.028 725.947C586.598 729.002 581.693 731.307 576.513 732.772C561.393 737.132 548.202 735.962 534.547 728.347C524.957 721.567 520.057 715.552 516.312 704.487C528.292 721.502 535.843 729.002 557.393 731.747C554.003 728.912 549.618 726.792 546.003 723.967C533.888 714.512 527.243 703.932 525.523 688.567C523.348 669.157 525.467 650.277 537.677 634.492C546.032 623.487 558.448 616.282 572.148 614.492Z" fill="white"/>
<path d="M383.911 607.898C386.586 607.813 387.403 607.708 389.959 608.378C390.007 609.473 383.122 611.188 381.134 613.123C359.666 634.028 351.452 666.853 360.512 695.408C365.53 711.228 373.849 717.358 387.937 724.338C381.466 725.588 379.58 725.293 372.949 724.713C357.561 722.503 343.524 708.228 338.658 693.128C329.449 664.563 338.008 625.643 367.568 612.278C371.364 610.563 379.06 609.553 383.911 607.898Z" fill="white"/>
<path d="M643.078 571.695C652.568 582.44 658.713 612.115 659.523 626.82C660.163 638.325 646.178 652.965 638.728 661.36C637.723 656.685 637.018 653.615 635.528 649.1C630.343 634.605 621.793 627.7 608.883 620.685C624.538 609.15 648.053 594.545 643.078 571.695Z" fill="white"/>
<path d="M630.783 740.117C635.103 740.812 640.008 742.642 645.388 743.502C647.728 760.702 646.998 759.592 642.803 775.922C639.363 788.992 636.073 802.097 632.933 815.242L623.373 815.527C615.698 815.957 613.633 815.932 606.133 814.367C607.853 804.947 612.193 791.162 614.333 781.427C615.558 775.862 620.013 757.522 621.818 753.282C623.918 748.347 626.963 743.872 630.783 740.117Z" fill="white"/>
<path d="M623.102 756.38C627.552 756.08 633.592 757.695 637.827 759.155C640.432 760.05 640.542 760.11 641.527 762.22C636.492 762.605 626.577 760.33 623.102 756.38Z" fill="black"/>
<path d="M339.965 355.977L340.402 356.153C341.229 357.835 339.644 377.685 339.447 381.335C338.891 390.713 338.453 400.097 338.134 409.486C337.95 416.417 337.856 430.169 336.75 436.515C334.22 433.334 332.258 430.538 329.953 427.18C326.113 419.927 322.303 408.96 321.358 400.751C319.267 382.584 314.992 358.825 339.965 355.977Z" fill="white"/>
<path d="M404.925 620.367C411.195 619.977 415.363 623.302 418.842 628.592C419.677 629.862 419.328 631.112 418.819 632.417C416.301 631.942 413.847 628.227 410.884 627.227C394.764 622.012 391.751 647.657 390.382 657.852C388.877 669.062 390.516 694.887 403.457 699.202C406.422 700.182 409.656 699.932 412.434 698.502C417.357 695.912 419.983 690.467 421.664 685.442C421.842 684.032 422.549 683.567 423.654 682.807L424.257 683.062C427.713 693.512 410.185 714.042 397.509 704.507C390.751 700.537 386.216 693.622 384.234 685.852C379.151 665.922 380.042 627.097 404.925 620.367Z" fill="white"/>
<path d="M670.052 753.984C674.942 754.849 681.257 757.404 686.027 759.214C686.602 760.574 687.182 761.839 687.807 763.179C691.632 763.719 696.192 763.824 698.352 767.374C698.577 777.269 693.937 791.569 691.487 801.369C690.582 805.014 690.247 808.984 689.047 812.484C686.912 814.494 685.122 814.304 682.987 812.594C681.287 808.974 682.702 805.009 683.502 800.929C684.642 795.404 693.387 773.269 688.712 770.244C684.692 770.769 682.752 779.209 680.782 782.864L680.472 783.419C675.812 782.134 675.207 781.214 671.772 777.914C669.777 777.899 661.932 778.119 661.462 776.134C660.022 770.019 665.707 758.014 670.052 753.984Z" fill="white"/>
<path d="M657.799 784.648C664.854 786.623 672.334 788.008 678.329 791.958C676.319 796.908 671.714 815.308 669.989 816.843C666.224 816.893 651.744 817.603 649.469 815.718C649.959 810.818 656.134 790.463 657.799 784.648Z" fill="white"/>
<path d="M400.039 362.93C414.834 365.262 430.063 364.773 444.648 365.997C443.239 368.523 441.862 371.067 440.519 373.629L440.229 374.413C438.405 374.826 435.117 373.557 433.138 373.115C424.411 371.168 416.699 371.995 408.068 373.718C405.288 369.514 403.215 366.84 400.039 362.93Z" fill="white"/>
<path d="M592.366 582.258C598.966 583.068 618.956 590.473 620.656 597.568C620.196 599.828 620.286 599.168 618.476 601.128C617.791 601.663 617.011 602.103 616.266 602.563C614.371 601.938 609.951 599.683 607.871 598.718C602.896 596.403 596.331 594.658 591.961 591.668C591.996 588.458 592.176 585.453 592.366 582.258Z" fill="white"/>
<path d="M402.846 583.672C404.448 583.907 418.196 589.672 422.183 590.907C419.301 593.647 413.733 601.182 412.941 601.762L411.354 601.332C404.14 597.617 397.94 596.017 389.969 595.087L402.846 583.672Z" fill="white"/>
<path d="M617.418 554.094C620.328 555.349 621.708 556.229 624.418 557.794C630.818 561.494 638.633 574.754 634.063 581.854L633.028 582.234C624.453 575.709 618.783 570.324 609.258 564.434C613.358 564.239 623.158 564.774 626.028 563.169L626.473 562.169C625.193 559.304 619.918 556.844 617.023 555.489L617.418 554.094Z" fill="white"/>
<path d="M644.187 717.648C646.092 720.078 645.442 736.178 645.412 739.983L636.147 737.498C634.662 737.308 633.732 737.353 632.547 736.448C633.112 732.348 640.742 720.428 644.187 717.648Z" fill="white"/>
<path d="M680.328 739.49C684.618 739.07 685.023 739.76 688.563 742.25C688.278 744.775 687.923 751.14 686.148 752.765C685.568 753.295 685.093 752.945 683.988 752.765C680.858 751.76 677.693 750.845 674.508 750.02C675.238 747.495 676.133 744.02 677.253 741.7C678.188 739.76 678.558 740.015 680.328 739.49Z" fill="white"/>
<path d="M608.703 552.492C612.558 552.847 613.703 553.032 617.418 554.092L617.023 555.487L608.703 552.492Z" fill="white"/>
<path d="M665.297 825.789C669.952 825.849 690.677 825.764 693.422 826.809C691.852 827.794 691.247 828.019 689.457 828.534C687.962 830.814 688.937 833.164 690.932 834.784L692.187 834.884C692.872 834.259 692.947 834.294 693.447 833.539L692.877 841.479C688.987 842.344 685.732 842.759 682.047 841.079C681.287 840.079 681.727 840.439 680.797 839.909C680.537 838.014 680.732 836.059 679.327 834.994C677.887 833.899 672.667 834.174 670.602 834.129L671.852 833.519C672.407 831.519 672.897 829.059 671.347 827.459C669.367 827.839 667.477 828.059 665.542 827.334L665.297 825.789Z" fill="white"/>
<path d="M665.547 827.328C667.482 828.053 669.372 827.833 671.352 827.453C672.902 829.053 672.412 831.513 671.857 833.513L670.607 834.123L666.977 833.788L666.092 833.038C665.607 830.718 665.617 829.733 665.547 827.328Z" fill="white"/>
<path d="M693.425 826.805C693.455 829.055 693.51 831.285 693.45 833.535C692.95 834.29 692.875 834.255 692.19 834.88L690.935 834.78C688.94 833.16 687.965 830.81 689.46 828.53C691.25 828.015 691.855 827.79 693.425 826.805Z" fill="white"/>
</svg>
