<svg width="1024" height="1024" viewBox="0 0 1024 1024" fill="none" xmlns="http://www.w3.org/2000/svg">
<path d="M504.292 150.42C506.732 149.963 512.492 149.987 515.152 150.01C568.127 150.481 623.247 166.71 653.712 212.819C654.382 207.562 655.277 201.631 660.877 199.283C662.972 198.404 665.347 198.463 667.397 199.446C677.827 204.52 671.487 219.352 667.802 226.646C684.777 216.873 696.142 227.216 682.302 241.674C700.797 254.815 712.397 273.697 720.142 294.786C731.872 326.73 731.207 363.749 720.592 395.918C717.702 404.681 713.482 413.329 709.587 421.734C721.272 447.043 718.867 476.693 695.017 494.622C690.227 498.221 684.447 500.083 678.832 502.016C672.147 524.732 662.637 534.261 639.357 538.686C631.882 546.171 624.452 552.391 616.472 559.226C613.342 561.911 614.047 575.731 614.047 580.036C617.937 581.846 621.707 583.561 625.477 585.626L625.632 585.936C630.142 594.831 629.417 601.471 636.467 612.731C639.997 614.031 648.807 615.636 653.002 616.651C664.817 619.516 675.372 622.626 686.567 627.486C694.307 630.846 697.877 635.551 704.682 639.596C705.432 640.046 713.037 642.046 714.977 642.761C727.197 647.286 733.177 651.551 742.442 660.316C761.377 659.576 772.927 664.361 788.177 675.996C793.867 680.341 799.067 685.546 803.687 691.006C809.532 697.916 831.787 729.281 832.497 736.701C832.912 741.056 829.802 746.091 827.087 749.291C818.142 759.846 803.992 768.051 792.382 775.446C725.372 818.116 635.302 848.056 556.512 854.926C557.252 866.221 557.482 867.206 544.702 869.911C525.547 874.056 505.757 874.366 486.481 870.826C482.777 870.156 477.848 869.286 474.619 867.231C472.881 866.126 472.688 863.861 472.267 861.816C468.902 861.746 465.263 861.401 461.881 861.141C449.908 861.216 428.164 856.186 416.872 851.381C414.59 850.411 414.731 846.956 413.717 844.636C411.142 843.731 408.337 843.076 405.661 842.536C392.301 839.841 379.589 835.876 366.626 831.696C328.977 819.756 293.454 801.941 261.372 778.901C240.417 763.561 242 761.506 251.156 736.646C260.545 711.156 278.312 676.951 303.278 663.901C310.281 660.241 325.64 655.451 333.057 658.046C341.466 650.286 347.279 645.391 358.392 642.736C358.369 646.401 358.554 654.596 362.887 655.496C364.327 654.081 366.192 646.601 367.65 644.681C377.572 631.621 412.713 622.386 427.56 618.251C428.938 614.586 431.057 609.476 435.521 608.521C440.072 607.546 454.627 601.231 444.791 595.366C441.925 593.656 436.114 592.261 432.597 590.686C421.948 585.811 411.905 579.716 402.671 572.511C394.439 566.001 384.165 555.996 378.326 546.966C350.724 504.27 354.056 448.77 354.238 400.099C354.298 384.114 355.918 366.111 354.042 350.474L353.955 349.781C336.342 336.589 334.375 313.568 349.676 297.405C352.196 294.744 355.019 292.87 358.013 290.764C355.185 288.799 352.451 286.704 349.819 284.485C334.123 271.005 326.765 249.005 341.538 231.833C347.398 247.854 356.086 256.495 373.505 259.399C375.548 259.739 377.803 260.17 379.577 258.933C378.227 256.798 369.333 256.363 365.444 251.846C360.536 246.145 354.783 237.929 361.37 231.226C355.486 225.932 349.043 220.028 345.177 212.655C340.894 204.485 347.547 187.334 355.241 182.71C359.393 180.215 363.527 188.613 366.064 191.489C373.822 200.29 385.952 202.463 396.579 197.761C398.157 197.065 398.826 196.329 399.393 194.805C397.868 191.891 391.886 190.974 388.666 189.696C383.548 187.812 379.217 184.602 376.869 179.559C374.029 173.46 373.793 160.06 381.012 156.914C386.611 156.735 390.339 165.882 394.769 169.134C397.358 171.035 400.935 173.05 404.254 173.021C420.319 172.839 435.308 165.687 450.258 160.646C468.187 154.601 485.516 151.769 504.292 150.42Z" fill="black"/>
<path d="M520.973 278.273C525.028 279.034 533.538 279.436 538.088 279.847C554.993 281.374 578.393 284.115 592.683 293.143C607.578 302.552 606.793 336.417 610.433 352.259C613.273 364.617 617.113 371.92 627.868 379.011C629.458 389.711 630.778 401.194 631.178 411.983C631.323 415.96 629.403 426.634 631.763 429.189C637.018 434.718 643.938 428.206 649.213 426.241C650.003 425.947 652.388 426.398 653.273 426.559C658.093 422.375 663.313 417.3 669.348 415.011C684.408 409.295 695.643 417.302 700.483 431.601C704.588 443.595 703.708 456.734 698.043 468.076C691.373 481.461 678.753 491.592 662.948 490.733C658.078 490.468 653.043 487.426 648.538 488.903C646.113 492.091 652.308 496.465 654.758 498.053C644.133 516.092 632.163 530.105 616.063 543.436C611.218 547.771 605.868 551.426 601.033 555.766C595.573 560.671 598.008 563.341 602.553 567.336C601.523 578.681 602.003 586.496 602.673 597.711C582.103 617.896 557.603 634.916 530.218 644.371C524.768 646.226 519.273 647.951 513.743 649.551C508.098 651.131 497.158 652.731 495.066 658.751C495.13 662.421 497.277 663.101 500.378 663.461C503.288 663.331 508.903 662.391 510.718 664.476L510.233 665.271C503.603 667.931 487.923 666.901 480.542 665.056L480.255 664.261C483.278 662.916 493.948 659.601 486.652 654.586C473.439 645.501 462.364 639.556 457.171 623.326C471.797 618.621 501.563 607.646 513.368 595.956C516.848 592.511 509.963 589.681 506.188 589.651C500.093 589.601 493.604 590.016 487.286 590.011C468.445 590.181 449.836 585.836 433.017 577.341C406.483 563.701 386.483 540.041 377.447 511.606C364.473 471.681 368.638 422.75 370.003 381.149C370.809 356.588 370.722 324.719 381.996 302.525C429.485 320.512 480.975 307.151 520.973 278.273Z" fill="white"/>
<path d="M427.797 506.219C432.659 507.134 441.186 513.437 446.649 515.607C457.895 520.076 470.084 520.172 481.15 514.965C487.497 511.979 501.138 501.991 504.053 514.321C504.578 516.702 503.293 518.812 501.893 520.687C469.556 546.846 413.083 516.231 427.797 506.219Z" fill="black"/>
<path d="M437.497 436.288C440.132 436.112 444.16 436.02 446.109 438.037C447.287 443.013 434.49 449.159 432.856 456.032C432.188 458.841 433.496 462.676 434.942 465.061C436.788 468.107 439.594 469.583 443.042 470.174C455.858 472.374 466.776 461.42 472.023 463.392C473.298 463.871 474.401 464.716 474.976 465.982C476.045 468.332 475.588 470.231 474.623 472.517C465.589 481.757 444.883 483.613 433.632 476.998C428.155 473.785 424.269 468.429 422.913 462.225C420.248 450.271 424.985 439.159 437.497 436.288Z" fill="black"/>
<path d="M509.507 355.338C524.812 354.162 543.632 361.272 555.527 370.773C558.682 373.294 562.937 377.214 563.402 381.355C561.907 384.313 559.087 382.758 556.797 381.591C542.232 373.598 526.572 369.845 509.997 369.521C496.076 369.25 495.434 357.676 509.507 355.338Z" fill="black"/>
<path d="M681.291 433.832C681.931 433.789 682.576 433.767 683.216 433.766C686.521 433.781 692.831 435.322 691.896 439.679C689.356 443.033 683.651 444.356 679.791 446.868C691.006 457.793 685.541 460.595 672.611 458.059C670.526 461.241 669.901 462.161 667.251 464.882C664.541 467.029 658.881 470.487 656.036 468.011C646.711 459.882 657.941 445.211 665.431 440.265C671.516 436.249 674.936 434.877 681.291 433.832Z" fill="black"/>
<path d="M415.338 353.399C421.39 352.711 437.88 353.405 433.618 364.24C432.085 368.139 421.189 366.928 416.961 367.221C408.404 367.814 401.479 369.111 393.128 371.605C389.443 372.882 379.713 377.463 377.547 373.65C377.584 371.845 378.38 370.655 379.525 369.275C387.494 359.677 403.493 354.721 415.338 353.399Z" fill="black"/>
<path d="M403.989 391.274C418.79 390.294 422.275 402.523 417.852 415.166C416.866 417.984 415.004 419.597 412.427 421.048C406.444 421.586 400.564 420.628 398.323 414.463C395.431 406.506 395.305 395.189 403.989 391.274Z" fill="black"/>
<path d="M523.037 395.233C537.772 394.673 539.582 411.281 536.657 422.388C535.987 424.941 533.252 426.352 530.922 427.203C519.677 427.242 516.742 419.704 516.412 409.567C516.217 403.538 517.267 397.988 523.037 395.233Z" fill="black"/>
<path d="M523.224 687.438C524.659 688.283 530.759 699.778 531.744 701.728C544.124 726.233 560.439 714.338 576.909 702.323C579.419 700.493 582.909 696.868 585.704 695.263L586.474 695.598C586.699 697.198 585.974 698.783 585.249 700.218C573.034 724.433 562.094 740.953 536.119 750.458C533.139 745.228 528.969 731.073 526.884 724.633C527.384 740.053 529.794 756.928 532.064 772.188C534.354 788.248 536.924 804.273 539.779 820.243C542.184 833.088 545.169 845.628 547.639 858.383C531.569 864.748 498.708 864.588 481.506 860.343C481.368 845.098 483.493 822.548 484.301 806.923C485.823 777.458 486.968 749.088 492.54 720.113C490.056 723.668 488.763 727.953 485.478 732.398C483.809 727.903 482.241 723.368 480.776 718.803C480.343 724.498 479.122 732.053 478.419 737.883C477.089 749.238 475.904 760.613 474.866 772.003C472.521 798.508 471.573 824.773 469.366 851.068C453.892 851.418 436.005 847.588 421.117 843.193C422.327 833.378 424.954 823.858 427.393 814.308L436.085 780.128C440.619 762.158 443.567 743.458 450.339 726.158C448.436 729.113 445.443 735.078 442.037 735.613C437.675 734.163 432.263 727.393 430.241 723.228C424.569 711.538 425.473 699.198 429.382 687.273C433.439 697.493 438.73 714.538 451.327 699.998C454.504 696.333 457.835 691.608 461.591 688.623C461.867 699.228 456.498 706.193 471.733 708.243C486.262 710.203 505.464 711.463 519.364 706.233C521.794 705.318 522.859 690.098 523.224 687.438Z" fill="white"/>
<path d="M618.768 597.523C621.088 598.973 622.208 608.893 623.248 611.973C624.468 615.608 626.093 619.608 627.073 623.303C628.593 629.473 624.188 637.248 620.928 642.398C607.753 663.183 588.448 679.433 569.188 694.328C562.508 699.493 555.768 704.888 547.603 706.753C543.173 703.438 542.063 700.718 539.343 695.928C536.083 689.743 532.808 683.588 529.323 677.523C526.078 671.873 522.318 666.348 519.508 660.493C553.483 647.843 574.438 637.303 602.033 613.173C607.453 608.428 612.913 602.293 618.223 597.963L618.768 597.523Z" fill="white"/>
<path d="M442.706 614.617C444.677 615.202 445.508 622.377 446.426 624.972C451.683 639.812 461.654 648.947 473.836 657.667C462.196 668.022 459.986 670.417 451.759 683.437C449.135 687.377 446.149 692.207 442.987 695.622C441.636 692.582 440.303 689.532 438.99 686.477C436.263 680.092 432.885 672.467 431.885 665.332C429.83 650.657 431.254 633.647 435.363 619.342C436.097 616.787 440.377 615.527 442.706 614.617Z" fill="white"/>
<path d="M650.33 626.023C654.37 626.458 655.335 628.473 657.005 631.853C647.155 653.258 638.935 675.568 630.36 697.513C628.795 701.528 625.19 701.213 623.86 703.863C620.6 710.358 618.12 717.163 614.96 723.768C614.135 725.258 612.94 726.998 612 728.458C613.34 712.548 641.24 638.743 650.33 626.023Z" fill="white"/>
<path d="M409.601 635.773L410.198 635.913C410.281 637.258 406.92 642.688 406.039 644.873C404.858 647.878 403.91 650.973 403.205 654.123C400.679 665.028 399.49 677.088 397.45 688.158C396.201 694.928 394.519 701.628 392.896 708.318C384.467 701.908 383.596 689.788 383.144 680.048C383.137 675.958 382.927 659.408 384.684 656.938C385.987 656.963 386.655 657.163 387.639 658.068C391.381 661.503 389.45 682.413 389.969 688.168C391.606 674.968 393.734 653.353 399.573 641.698C401.539 637.773 405.653 636.773 409.601 635.773Z" fill="white"/>
<path d="M733.677 663.484C734.647 663.834 734.283 663.519 734.768 664.434C733.953 666.684 730.008 673.264 728.508 676.234C723.373 686.129 718.583 696.204 714.143 706.424C709.408 717.529 705.002 728.769 700.927 740.129C697.602 749.359 694.242 759.954 689.987 768.629C689.442 768.599 689.817 768.649 688.927 768.214C685.452 757.229 710.108 697.524 716.773 684.584C720.873 676.619 725.307 667.614 733.677 663.484Z" fill="white"/>
<path d="M329.871 664.953C334.009 666.573 330.013 672.483 328.757 675.353C326.031 681.578 322.957 687.603 320.639 694.018C312.128 717.558 310.2 742.483 307.12 767.113C306.935 768.583 306.081 769.758 305.194 770.918C303.564 768.988 302.866 765.763 302.806 763.123C302.176 735.718 308.989 703.398 319.969 678.403C321.751 674.348 327.14 668.168 329.871 664.953Z" fill="white"/>
<path d="M696.453 644.547C697.518 645.022 697.138 644.857 697.933 645.957C698.253 648.082 698.033 649.077 697.003 651.027C690.863 662.392 683.623 672.962 677.673 684.477C674.498 690.627 671.063 698.277 667.143 703.877L666.823 703.977L666.258 703.452C667.193 688.837 683.793 652.472 696.453 644.547Z" fill="white"/>
<path d="M359.465 669.102L360.256 669.837C360.719 672.172 353.727 695.367 352.04 697.927C351.129 697.687 351.608 697.897 350.672 697.157C349.746 692.567 350.681 684.292 351.883 679.697C353.394 673.927 354.589 671.982 359.465 669.102Z" fill="white"/>
</svg>
