<svg width="1024" height="1024" viewBox="0 0 1024 1024" fill="none" xmlns="http://www.w3.org/2000/svg">
<path d="M235.266 538.475C239.368 532.135 244.733 527.035 249.528 521.27C258.567 510.399 268.827 492.716 273.242 479.399C279.515 460.48 277.815 436.051 278.702 416.045C279.099 407.087 280.32 397.97 281.738 389.115C285.904 363.113 294.042 337.816 304.132 313.555C310.419 298.44 317.51 282.72 325.82 268.617C352.198 223.847 389.461 189.927 438.343 171.479C447.681 167.954 457.152 164.105 466.923 161.988C507.662 153.16 549.047 151.207 589.017 164.941C596.217 167.415 603.177 170.812 610.102 173.96C620.497 178.688 630.482 183.106 640.132 189.355C644.317 192.064 648.632 194.793 652.447 198C657.037 201.857 661.727 207.401 666.972 210.248C669.902 211.837 673.777 211.503 676.997 212.149C682.597 213.275 689.047 217.904 693.522 221.309C700.402 226.546 706.037 232.83 711.402 239.558C726.822 258.887 735.652 280.262 743.682 303.461C747.992 315.914 751.907 328.092 754.662 341.006C758.547 359.215 760.782 377.828 763.747 396.205C773.162 454.518 780.932 493.831 760.492 550.96C756.847 561.145 753.442 572.17 747.452 581.27C743.862 586.73 739.572 590.995 734.297 594.835C736.472 588.1 736.082 581.985 735.717 574.97L735.412 575.705C733.952 579.315 732.727 583.435 731.817 587.24C725.227 614.735 697.957 646.68 667.802 647.67C673.692 644.145 691.032 630.18 690.032 623.12L689.027 622.7C686.787 623.79 684.532 625.535 682.502 627.035C666.092 639.18 648.082 642.04 628.617 636.04C634.407 642.99 641.962 648.94 648.167 655.575C650.567 658.145 659.472 669.87 661.547 670.69C698.737 685.335 742.867 694.26 772.277 723.225C785.822 736.565 799.992 770.44 798.437 790.165C773.827 816.475 683.377 846.265 646.397 854.4C637.392 856.38 624.442 858.34 614.937 859.75C603.562 861.435 590.972 863.125 579.447 864.075C576.417 864.325 574.517 864.38 572.322 862.405C569.912 862.68 566.837 864.3 565.137 862.59L565.247 860.09C563.437 861.815 561.407 863.88 559.442 865.375C549.952 865.56 527.687 866.255 518.727 865.515C511.402 874.895 453.615 864.82 440.637 862.92C434.157 861.97 419.812 861.865 415.193 857.735C403.385 856.43 398.459 854.15 387.346 851.63C383.741 851.695 382.294 851.095 379.622 848.81C358.421 846.82 293.519 819.68 280.258 802.98C281.294 793.135 284.011 781.76 286.651 772.14C292.979 749.08 297.317 720.845 317.2 705.27C335.499 690.93 358.866 686.66 379.277 676.17C397.443 666.905 412.205 655.48 428.618 643.54C431.276 641.605 443.807 632.88 444.975 630.92C445.106 629.225 445.311 629.96 444.48 628.605C440.311 626.415 418.408 625.355 411.666 624.53C412.347 626.75 414.652 633.055 414.576 634.745C408.043 638.86 397.108 623.955 392.47 631.2C390.26 634.655 398.812 641.535 396.744 644.355C393.562 645.53 390.355 645.24 387.03 645.215C348.844 644.94 313.892 617.85 298.27 584.05C297.62 588.89 297.309 591.555 299.13 596.21C303.588 607.62 312.155 617.785 321.693 625.32C325.304 628.17 329.325 630.125 332.492 633.53C322.972 627.93 314.518 623.885 306.466 616.025C303.681 613.305 301.358 610.565 298.667 607.82C292.793 610.64 306.842 628.875 309.52 631.895C287.816 627.395 281.205 625.605 268.758 607.035C248.466 576.765 256.394 545.845 269.027 514.603C269.54 513.336 270.576 508.901 269.923 507.667C268.086 508.498 265.49 512.632 264.084 514.333C255.938 524.19 248.117 535.215 235.266 538.475Z" fill="black"/>
<path d="M504.176 787.928C498.952 799.498 471.826 854.793 476.595 865.543C477.057 866.583 477.476 867.208 478.511 867.683C480.268 867.168 481.909 866.088 482.544 864.323C487.594 850.303 493.752 836.688 499.743 823.103C512.406 794.828 526.212 767.078 541.132 739.923C546.507 730.348 551.956 720.878 557.601 711.458C572.051 687.338 594.671 665.108 602.236 637.453C607.746 642.568 610.196 645.223 610.191 653.153C610.176 679.353 597.107 705.038 587.197 728.873C576.737 754.043 564.056 778.308 551.671 802.548L532.027 840.203C527.912 848.148 523.221 857.903 518.721 865.518C511.396 874.898 453.609 864.823 440.632 862.923C434.151 861.973 419.806 861.868 415.188 857.738C415.879 831.513 420.135 805.813 423.509 779.828C423.8 777.583 424.204 775.068 424.642 772.848C429.139 775.818 434.748 779.698 439.335 782.208C454.206 790.358 474.395 795.603 491.329 792.208C495.77 791.308 500.086 789.873 504.176 787.928Z" fill="#FEFEFE"/>
<path d="M645.423 758.081C648.893 735.976 652.558 714.436 653.763 692.051C653.948 688.556 654.638 684.186 655.458 680.776C657.038 679.731 656.168 680.031 658.208 680.036C659.388 680.776 659.763 680.856 660.118 682.286C662.783 692.976 661.158 754.861 654.858 763.336C651.128 768.366 625.213 771.396 618.233 772.096L616.393 772.271L616.868 772.876C621.028 778.141 630.868 784.851 632.463 790.031C633.328 792.821 618.603 809.276 616.368 811.961C606.403 824.106 596.108 835.976 585.493 847.556C581.713 851.686 575.858 859.011 572.318 862.406C569.908 862.681 566.833 864.301 565.133 862.591L565.243 860.091C567.363 856.016 575.198 848.541 578.418 844.676C585.583 836.071 592.868 827.531 600.118 819.001C606.803 811.136 618.283 800.671 623.243 791.986C619.533 785.501 603.273 773.246 603.563 768.101C605.148 766.366 638.018 761.446 645.423 758.081Z" fill="#FEFEFE"/>
<path d="M379.616 848.811C378.368 843.466 377.807 836.056 377.068 830.441L372.756 798.206C371.832 790.916 367.28 770.076 370.575 764.061C373.74 758.281 387.064 749.551 389.659 743.101C388.677 737.271 372.769 735.486 368.333 729.966C367.653 725.981 394.938 687.026 398.226 681.421C402.265 674.531 414.303 662.826 421.264 658.516C415.859 674.976 405.729 683.101 396.637 696.786C390.339 706.271 384.334 716.656 377.98 726.371C387.17 732.851 396.077 732.821 403.675 738.206C400.637 743.151 392.625 751.611 388.367 755.836C384.435 759.741 379.754 763.231 376.645 768.001C379.118 794.366 382.163 825.786 387.34 851.631C383.735 851.696 382.288 851.096 379.616 848.811Z" fill="#FEFEFE"/>
<path d="M689.255 409.667C708.395 407.945 716.445 427.838 714.165 443.861C711.225 464.487 701.765 478.316 685.75 491.044C682.75 487.098 679.635 484.624 675.22 482.466C672.245 483.086 666.535 485.52 663.875 487.149C657.895 490.81 657.06 493.979 655.435 500.11C637.29 489.81 640.21 507.951 633.665 519.432C624.695 535.167 615.9 549.787 603.455 563.242C596.63 570.622 584.38 575.412 578.67 583.687C573.31 597.737 584.36 629.792 589.005 642.882C587.21 647.877 582.635 654.497 579.495 659.877C560.585 692.312 529.745 731.377 487.256 723.012C482.717 722.117 471.636 708.537 467.675 705.002C466.516 703.967 464.3 699.672 463.571 698.167C452.331 676.632 451.193 664.352 458.449 641.292C460.47 634.867 462.458 626.942 464.778 620.047C483.043 621.042 497.031 621.012 513.53 610.647C516.735 608.637 519.38 606.227 520.115 602.507C518.24 595.807 508.97 599.892 504.49 601.552C496.627 604.457 489.877 606.182 481.592 607.347C478.91 607.697 476.207 607.867 473.502 607.857C445.295 607.802 413.6 593.432 394.046 573.397C362.411 540.977 353.35 500.057 353.55 456.213C372.929 479.223 402.155 485.823 426.516 465.482C444.444 450.512 445.796 436.146 448.08 414.319C459.991 412.871 469.143 412.67 480.376 417.449C480.465 421.677 480.591 425.884 481.207 430.068C487.977 476.034 543.275 497.772 577.925 464.99C593.285 450.461 593.835 436.677 595.09 416.071C605.53 415.939 608.11 414.732 617.935 413.288C622.445 412.626 634.87 412.955 639.685 413.036C640.23 414.787 641.52 418.939 641.69 420.62C643.585 439.234 644.86 447.475 659.645 427.35C666.095 418.569 677.645 411.288 689.255 409.667Z" fill="#FEFEFE"/>
<path d="M445.899 448.611C448.847 448.448 451.356 447.884 453.183 450.475C453.188 455.002 444.384 459.766 443.929 466.505C443.177 477.663 448.36 484.926 460.126 482.114C466.365 480.623 480.719 467.046 483.277 478.179C483.851 480.879 481.891 483.224 480.398 485.334C472.519 493.489 461.013 496.773 449.985 493.388C429.79 487.189 426.141 457.397 445.899 448.611Z" fill="black"/>
<path d="M491.795 521.555C513.258 523.39 473.699 562.585 438.208 536.965C434.743 534.125 431.893 531.385 431.094 526.675C432.462 522.085 437.112 524.9 439.661 526.615C451.025 534.25 467.218 536.06 479.455 529.44C483.68 527.155 486.807 523.62 491.795 521.555Z" fill="black"/>
<path d="M686.918 431.68C689.738 431.371 696.848 431.024 699.103 432.687C698.648 435.759 686.473 438.67 684.378 441.363C677.028 450.793 687.013 460.214 668.668 458.763C665.528 460.877 664.753 463.079 660.183 461.281C658.383 459.617 658.253 457.089 659.028 454.884C663.333 442.654 674.403 433.709 686.918 431.68Z" fill="black"/>
<path d="M606.011 246.578C608.776 250.14 597.586 262.715 596.136 267.065C584.161 303.09 599.711 341.847 618.316 372.712C624.551 383.055 636.056 391.881 638.321 403.372C631.606 403.586 619.681 405.182 613.551 404.266C604.581 402.925 601.536 401.359 591.591 401.421C589.166 395.352 584.396 388.424 579.656 383.899C557.486 362.725 508.606 365.305 489.956 390.201C485.78 395.774 484.032 401.635 482.249 408.247C468.476 404.643 460.955 404.738 446.849 406.748C443.731 383.658 430.559 371.551 408.612 366.563C388.707 363.051 372.716 366.831 355.844 377.476C356.588 369.99 358.234 354.301 359.719 347.367C362.413 344.797 378.026 335.291 382.246 332.419C399.928 320.384 414.174 310.304 429.5 295.136L428.763 296.644C425.349 303.744 414.55 317.32 416.789 322.186C422.637 334.9 465.265 317.641 474.395 314.279C486.622 309.775 491.182 305.863 501.716 303.502C499.569 306.484 494.322 312.724 496.943 316.118C501.881 318.038 515.486 311.821 520.336 309.543C547.486 296.785 572.086 278.435 593.721 257.762C597.721 253.937 602.191 250.541 606.011 246.578Z" fill="#FEFEFE"/>
<path d="M530.397 352.708C533.517 352.644 537.057 353.228 540.132 353.605C545.987 354.324 569.222 361.935 567.772 369.436C564.742 372.039 557.872 369.25 554.377 368.184C546.142 365.917 537.647 364.764 529.107 364.756C525.257 364.736 516.622 365.049 513.352 364.325C514.282 356.108 523.567 353.535 530.397 352.708Z" fill="black"/>
<path d="M412.29 349.218C417.547 348.982 432.963 350.477 429.066 359.029C425.403 362.801 417.178 361.621 412.114 361.596C407.767 361.534 403.421 361.813 399.118 362.431C395.625 362.697 386.153 364.785 383.614 363.849C382.674 354.219 405.446 349.884 412.29 349.218Z" fill="black"/>
<path d="M531.57 378.709C543.83 377.726 559.155 378.693 569.255 386.303C577.745 392.954 584.885 403.61 586.08 414.465C589.3 443.74 574.245 467.524 544.12 471.378C530.94 472.583 519.685 469.597 509.085 461.543C498.127 453.152 491.027 440.686 489.399 426.98C487.536 412.401 493.089 395.88 505.39 387.182C512.695 382.016 522.81 379.685 531.57 378.709Z" fill="#FEFEFE"/>
<path d="M536.915 401.104C547.425 399.9 551.435 418.167 549.87 426.09C548.68 432.082 547.65 434.219 542.945 437.905C540.505 438.242 539.335 438.245 536.86 438.214C526.92 433.651 528.495 421.775 529.915 412.722C527.72 411.408 525.49 409.944 523.32 408.569C526.42 403.723 531.64 402.504 536.915 401.104Z" fill="black"/>
<path d="M390.691 374.225C401.265 372.951 413.161 374.671 422.296 380.467C443.736 394.07 443.243 430.318 430.044 449.403C423.368 459.068 413.158 465.72 401.619 467.921C397.591 468.556 393.472 468.837 389.407 468.413C378.675 467.296 367.798 460.917 361.038 452.606C358.043 448.923 355.348 444.436 354.244 439.776C353.044 434.714 354.912 397.245 355.643 390.222C356.178 389.506 356.729 388.803 357.298 388.114C365.529 378.187 378.596 375.428 390.691 374.225Z" fill="#FEFEFE"/>
<path d="M399.394 400.091C414.037 399.278 417.098 422.599 410.454 431.949C408.474 434.735 405.948 435.355 402.747 435.642C392.094 432.016 393.954 419.608 394.152 410.565C392.129 409.865 390.007 409.295 388.743 407.631C387.953 403.02 395.813 401.286 399.394 400.091Z" fill="black"/>
<path d="M444.417 664.227C446.207 665.037 447.125 672.047 447.647 674.202C448.59 678.207 449.821 682.142 451.333 685.967C455.799 697.262 465.918 714.892 475.184 723.322C479.176 726.957 483.062 728.977 487.965 731.077C481.858 737.597 465.234 755.907 484.59 757.337C490.115 757.862 500.152 758.087 504.932 755.122C506.737 754.002 502.042 735.757 501.587 733.392C517.147 731.557 522.087 731.282 536.402 724.052C533.477 729.792 530.602 735.562 527.777 741.352C524.212 748.277 512.817 773.052 507.927 776.532C498.746 783.072 480.833 782.162 470.262 780.552C457.344 778.582 434.972 772.302 427.102 761.682C429.044 744.127 432.265 672.912 444.417 664.227Z" fill="#FEFEFE"/>
<path d="M669.157 490.625C671.452 490.484 674.677 490.708 676.817 491.579C679.592 492.726 681.792 494.94 682.917 497.725C685.647 504.65 681.412 509.973 675.047 512.358C667.942 512.313 664.627 511.202 660.547 505.166C660.297 497.512 661.022 493.011 669.157 490.625Z" fill="#FEFEFE"/>
<path d="M493.462 733.977C495.966 736.987 497.531 747.367 497.866 751.487L486.003 751.627L480.281 751.482C484.395 744.212 486.662 739.067 493.462 733.977Z" fill="#FEFEFE"/>
<path d="M344.843 390.693L345.312 390.688L345.716 391.203C344.822 394.073 343.953 396.95 343.108 399.835C340.869 399.305 338.353 398.878 336.075 398.439L334.226 397.786C330.131 391.59 341.573 391.113 344.843 390.693Z" fill="#FEFEFE"/>
<path d="M737.881 543.031C739.626 548.181 738.036 567.526 736.466 573.441C734.696 568.206 736.281 549.041 737.881 543.031Z" fill="#222223"/>
</svg>
